<svg width="205" height="29" viewBox="0 0 205 29" fill="none" xmlns="http://www.w3.org/2000/svg">
<g clip-path="url(#clip0_549_258)">
<path d="M193.107 7.74072C200.23 7.74072 205 10.8777 205 18.2425C205 25.6074 200.23 28.7443 193.107 28.7443C188.132 28.7443 184.303 27.215 182.447 23.7805C181.645 22.2981 181.208 20.4608 181.208 18.2425C181.208 16.0242 181.625 14.2652 182.391 12.8037C184.22 9.30138 188.08 7.74072 193.102 7.74072M198.884 18.2425C198.884 14.4113 196.766 12.2609 193.102 12.2609C189.437 12.2609 187.32 14.4113 187.32 18.2425C187.32 22.0737 189.437 24.2242 193.102 24.2242C196.766 24.2242 198.884 22.0685 198.884 18.2425Z" fill="#213565"/>
<path d="M182.437 23.7857V28.0919C181.332 28.238 179.112 28.4572 177.801 28.4572C172.189 28.4572 171.654 26.1919 171.654 22.6583V12.7724H167.923V8.47146H171.654V2.41675H177.57V8.47146H182.339V12.7724H177.57V21.891C177.57 23.4256 178.001 23.9371 179.554 23.9371C180.597 23.9371 181.502 23.864 182.442 23.7909" fill="#213565"/>
<path d="M168.611 28.0188H162.696C162.495 27.3246 162.326 26.6356 162.295 25.9414C160.28 28.1284 156.513 28.7495 153.855 28.7495C149.153 28.7495 145.858 26.9644 145.858 22.4025C145.858 17.8406 149.723 16.6401 153.316 16.3844L159.602 15.9146C161.416 15.7684 162.017 15.4396 162.017 13.8685C162.017 12.2974 160.809 11.5354 157.381 11.5354C154.863 11.5354 153.552 11.7546 152.709 14.4531H146.994C147.703 8.43493 152.807 7.74072 157.649 7.74072C166.119 7.74072 167.928 10.7315 167.928 14.38V24.078C167.928 25.7953 168.195 27.0323 168.601 28.0188M162.218 20.1059V18.4983C161.107 19.0829 159.9 19.229 158.723 19.3386L155.295 19.6727C153.213 19.8502 152.175 20.4713 152.175 22.2251C152.175 23.9788 153.686 24.9653 155.906 24.9653C158.897 24.9653 162.223 23.3942 162.223 20.1111" fill="#213565"/>
<path d="M145.195 1.53467V28.0136H139.485V25.5708H139.418C137.506 28.0867 134.988 28.7444 132.3 28.7444C126.918 28.7444 122.622 25.5604 122.272 19.2917C122.298 18.9524 122.308 18.6027 122.308 18.2373C122.308 17.9659 122.303 17.7049 122.288 17.4492C122.725 11.6711 126.929 7.94953 132.3 7.94953C135.625 7.94953 138.077 9.1135 139.223 10.8673H139.29V1.53467H145.205H145.195ZM139.485 18.3469C139.485 14.6254 136.895 12.6941 133.939 12.6941C130.984 12.6941 128.363 14.6254 128.363 18.3469C128.363 22.0685 130.953 23.9998 133.939 23.9998C136.925 23.9998 139.485 22.0685 139.485 18.3469Z" fill="#213565"/>
<path d="M122.282 17.4543C122.297 17.7101 122.302 17.9711 122.302 18.2425C122.302 18.6079 122.292 18.9576 122.267 19.2969C122.252 19.0254 122.241 18.7488 122.241 18.4617C122.241 18.1172 122.252 17.7832 122.277 17.4543" fill="#213565"/>
<path d="M122.282 17.4543C122.257 17.7831 122.246 18.1172 122.246 18.4617C122.246 18.7487 122.252 19.0254 122.267 19.2968C121.835 25.91 117.184 28.7495 110.41 28.7495C104.731 28.7495 100.542 26.7556 99.0872 22.2145C98.8816 21.5934 98.7326 20.9253 98.6401 20.2154H98.7429V19.6361C98.7429 18.7122 98.6863 17.8353 98.5681 17.0106C99.0769 10.5279 103.703 7.74585 110.41 7.74585C117.117 7.74585 121.954 10.6584 122.282 17.4595M116.192 18.2476C116.192 14.4165 114.074 12.266 110.41 12.266C106.745 12.266 104.628 14.4165 104.628 18.2476C104.628 22.0788 106.745 24.2293 110.41 24.2293C114.074 24.2293 116.192 22.0736 116.192 18.2476Z" fill="#213565"/>
<path d="M98.743 19.6255V20.2049H98.6402C98.558 19.589 98.5168 18.9313 98.5168 18.2371C98.5168 17.8091 98.5323 17.3968 98.5682 16.9949C98.6865 17.8196 98.743 18.6965 98.743 19.6203" fill="#213565"/>
<path d="M98.6402 20.2102H81.407V20.2832C81.407 22.1414 83.1544 24.9861 87.1891 24.9861C89.5739 24.9861 91.2545 24.1144 92.0923 22.4337H98.4089C96.6974 27.0635 92.596 28.9999 87.1839 28.9999C80.0604 28.9999 75.2856 25.863 75.2856 18.4981C75.2856 11.1333 80.0604 7.99634 87.1839 7.99634C94.3075 7.99634 97.7305 11.2586 98.5631 17.0053C98.5271 17.402 98.5117 17.8144 98.5117 18.2476C98.5117 18.9418 98.5528 19.5995 98.6351 20.2154M92.6268 16.1702V16.0971C92.6268 15.0376 91.383 11.7597 87.0503 11.7597C82.3784 11.7597 81.407 15.6274 81.407 16.0971V16.1702H92.6268Z" fill="#25336A"/>
<path d="M31.1309 0.166992C38.6657 0.166992 44.7767 6.54532 44.7767 14.4165C44.7767 22.2876 38.6657 28.5824 31.1309 28.5824L1.93774 28.4884L8.61929 21.3376H21.1035V8.58618H26.6852V21.3742H31.1309C34.7338 21.3742 37.6583 18.2424 37.6583 14.3329C37.6583 10.4235 34.7338 7.03074 31.1309 7.03074H28.1243V0.166992H31.1309Z" fill="#E30613"/>
<path d="M26.6851 0V7.03078H20.2656L15.1208 12.48H19.027V20.0067H8.00757L0 28.4885V17.2455L18.7289 0H26.6851Z" fill="#E30613"/>
<path d="M74.4631 1.58667V28.0656H68.753V25.6228H68.6861C66.7742 28.1387 64.2558 28.7964 61.5677 28.7964C56.1865 28.7964 51.8898 25.6124 51.5403 19.3437C51.566 19.0044 51.5763 18.6547 51.5763 18.2893C51.5763 18.0179 51.5711 17.7569 51.5557 17.5012C51.9926 11.7231 56.1968 8.00154 61.5677 8.00154C64.8931 8.00154 67.3447 9.1655 68.4908 10.9193H68.5577V1.58667H74.4734H74.4631ZM68.753 18.3989C68.753 14.6774 66.1626 12.7461 63.2073 12.7461C60.252 12.7461 57.6308 14.6774 57.6308 18.3989C57.6308 22.1205 60.2212 24.0518 63.2073 24.0518C66.1934 24.0518 68.753 22.1205 68.753 18.3989Z" fill="#213565"/>
</g>
<defs>
<clipPath id="clip0_549_258">
<rect width="205" height="29" fill="white"/>
</clipPath>
</defs>
</svg>
